<svg width="16" height="16" viewBox="0 0 16 16" fill="none" xmlns="http://www.w3.org/2000/svg">
<path d="M7.39917 2C4.96653 2.00438 3.69265 2.06411 2.87855 2.87835C2 3.75704 2 5.17128 2 7.99972C2 10.8282 2 12.2425 2.87855 13.1211C3.7571 13.9999 5.17111 13.9999 7.99917 13.9999C10.8271 13.9999 12.2412 13.9999 13.1197 13.1211C13.9338 12.3069 13.9935 11.0328 13.9979 8.59979" stroke="#45DCBF" stroke-width="1.5" stroke-linecap="round" stroke-linejoin="round"/>
<path d="M13.7039 2.33083L7.36572 8.70582M13.7039 2.33083C13.3746 2.00109 11.1561 2.03182 10.6871 2.03849M13.7039 2.33083C14.0333 2.66057 14.0025 4.8819 13.9959 5.35151" stroke="#45DCBF" stroke-width="1.5" stroke-linecap="round" stroke-linejoin="round"/>
</svg>
