<svg width="49" height="49" viewBox="0 0 49 49" fill="none" xmlns="http://www.w3.org/2000/svg">
<path fill-rule="evenodd" clip-rule="evenodd" d="M23.751 2.37105C20.9531 2.37105 18.1811 2.93999 15.5926 4.04707C13.004 5.1542 10.6478 6.77868 8.66039 8.83081C6.67278 10.8831 5.09306 13.3227 4.01427 16.012C3.20213 18.0364 2.68628 20.1715 2.48086 22.3467H5.26185C5.4562 20.5787 5.88945 18.843 6.55224 17.1909C7.48254 14.8718 8.84764 12.7608 10.5724 10.9799C12.2973 9.19884 14.3484 7.78266 16.6103 6.8153C18.8723 5.84783 21.2989 5.34907 23.751 5.34907C26.2032 5.34907 28.6298 5.84785 30.8918 6.81529C33.1535 7.78264 35.2047 9.19883 36.9296 10.9799C38.6544 12.7608 40.0194 14.8718 40.9498 17.1908C41.6126 18.8429 42.0459 20.5787 42.2402 22.3467H45.0212C44.8158 20.1715 44.2999 18.0364 43.4879 16.0119C42.4091 13.3228 40.8293 10.8831 38.8418 8.83085M14.2704 0.982478C17.2742 -0.302233 20.4959 -0.964325 23.751 -0.964325C27.006 -0.964325 30.2279 -0.302235 33.2318 0.982468C36.2352 2.2671 38.9604 4.14833 41.2532 6.5156C43.5456 8.88275 45.3613 11.6898 46.5989 14.7748C47.7721 17.6998 48.4051 20.8223 48.4674 23.9816L48.501 25.682H39.046L39.0023 24.059C38.9502 22.1243 38.556 20.2157 37.8389 18.4281M23.751 2.37105C26.5489 2.37105 29.321 2.93999 31.9096 4.04707L23.751 2.37105ZM14.2704 0.982478C11.2667 2.26712 8.54159 4.14834 6.24891 6.51564L14.2704 0.982478ZM31.9096 4.04707C34.498 5.15418 36.8543 6.77873 38.8418 8.83085L31.9096 4.04707ZM23.751 8.68445C21.7561 8.68445 19.7791 9.09008 17.9325 9.87988C16.0857 10.6697 14.4036 11.8292 12.9839 13.2951C11.5641 14.7611 10.4348 16.5047 9.66323 18.428C8.94612 20.2156 8.55182 22.1242 8.49977 24.059L8.45611 25.682H-0.999023L-0.965408 23.9815C-0.902955 20.8223 -0.270152 17.6999 0.903267 14.7748C2.14084 11.6898 3.95633 8.88283 6.24891 6.51564M23.751 8.68445C25.746 8.68445 27.7229 9.09007 29.5696 9.87987L23.751 8.68445ZM29.5696 9.87987C31.4163 10.6697 33.0985 11.8292 34.5181 13.2951C35.9379 14.761 37.0672 16.5048 37.8389 18.4281M38.8268 27.4429L47.9507 29.9672L47.499 31.5759C46.0394 36.7736 43.0062 41.3703 38.8239 44.6839C34.507 48.1043 29.2088 49.9642 23.751 49.9642C18.2932 49.9642 12.9952 48.1043 8.67823 44.6839C4.4959 41.3704 1.46254 36.7737 0.00299025 31.5759L-0.448718 29.9672L8.67524 27.4429L9.13372 29.0319C10.0569 32.2313 11.9324 35.042 14.4864 37.0656C17.1515 39.1771 20.4082 40.3156 23.751 40.3156C27.0938 40.3156 30.3506 39.1771 33.0157 37.0656C35.5697 35.042 37.4452 32.2313 38.3683 29.0319L38.8268 27.4429ZM6.44008 31.5231L3.74029 32.27C5.14452 36.1471 7.57521 39.5476 10.7641 42.074C14.4971 45.0317 19.0622 46.6288 23.751 46.6288C28.4398 46.6288 33.005 45.0317 36.7379 42.0741C39.9268 39.5476 42.3575 36.1471 43.7617 32.27L41.062 31.5231C39.8347 34.7277 37.7827 37.5511 35.1018 39.6754C31.8527 42.2496 27.8629 43.651 23.751 43.651C19.6391 43.651 15.6495 42.2496 12.4004 39.6754C9.71934 37.5512 7.66732 34.7277 6.44008 31.5231Z" fill="#45DCBF"/>
</svg>
